<?xml version="1.0" encoding="UTF-8"?><svg id="Layer_1" xmlns="http://www.w3.org/2000/svg" viewBox="0 0 50 50"><polygon points="12.14 5 37.86 5 45 12.14 45 37.86 37.86 45 12.14 45 5 37.86 5 12.14 12.14 5" style="fill:#fff; stroke:#000; stroke-linecap:round; stroke-linejoin:round; stroke-width:3px;"/><polygon points="29.06 11.61 36.41 11.61 38.45 13.65 38.45 21 36.41 23.04 29.06 23.04 27.02 21 27.02 13.65 29.06 11.61" style="fill:#fff; stroke:#000; stroke-linecap:round; stroke-linejoin:round; stroke-width:2px;"/><polygon points="13.34 27.51 20.69 27.51 22.73 29.55 22.73 36.89 20.69 38.94 13.34 38.94 11.3 36.89 11.3 29.55 13.34 27.51" style="fill:#fff; stroke:#000; stroke-linecap:round; stroke-linejoin:round; stroke-width:2px;"/><polygon points="30.9 14.47 34.57 14.47 35.59 15.49 35.59 19.16 34.57 20.18 30.9 20.18 29.88 19.16 29.88 15.49 30.9 14.47"/><polygon points="22.73 33.22 36.41 23.04 29.06 23.04 27.02 21 27.02 13.65 17.01 27.51 20.69 27.51 22.73 29.55 22.73 33.22"/><polygon points="5 16.51 5 25.9 14.16 35.06 15.18 36.08 18.85 36.08 19.87 35.06 19.87 31.38 5 16.51"/></svg>