<svg width="72" height="72" viewBox="0 0 72 72" fill="none" xmlns="http://www.w3.org/2000/svg">
<g clip-path="url(#clip0_39_2)">
<rect width="108" height="108" transform="translate(-18 -18)" fill="#FA5521"/>
<g clip-path="url(#clip1_39_2)">
<path d="M28 2.28125V20.5312H44V2.28125H28Z" fill="white"/>
<path d="M28 52.4688V70.7188H44V52.4688H28Z" fill="white"/>
<path d="M20 44.4844V28.5156L28 20.5312H44L52 28.5156V44.4844L44 52.4688H28L20 44.4844Z" fill="white"/>
<path fill-rule="evenodd" clip-rule="evenodd" d="M26.5 2.28125C26.5 1.45282 27.1716 0.78125 28 0.78125H44C44.8284 0.78125 45.5 1.45282 45.5 2.28125V19.9091L53.0596 27.4539C53.3416 27.7353 53.5 28.1173 53.5 28.5156V37.4462L56.6547 34.2977C57.241 33.7125 58.1908 33.7134 58.776 34.2998C59.3612 34.8861 59.3603 35.8359 58.7739 36.4211L53.5 41.6847V44.4844C53.5 44.8827 53.3416 45.2647 53.0596 45.5461L45.5 53.0909V70.7188C45.5 71.5472 44.8284 72.2188 44 72.2188H28C27.1716 72.2188 26.5 71.5472 26.5 70.7188V53.0909L18.9404 45.5461C18.6584 45.2647 18.5 44.8827 18.5 44.4844V37.8351L15.3453 40.9836C14.759 41.5688 13.8092 41.5679 13.224 40.9815C12.6388 40.3951 12.6397 39.4454 13.2261 38.8602L18.5 33.5966V28.5156C18.5 28.1173 18.6584 27.7353 18.9404 27.4539L26.5 19.9091V2.28125ZM28.6205 22.0312L21.5 29.1378V33.5966L26.7739 38.8602C27.3603 39.4454 27.3612 40.3951 26.776 40.9815C26.1908 41.5679 25.241 41.5688 24.6547 40.9836L21.5 37.8351V43.8622L28.6205 50.9688H43.3795L50.5 43.8622V41.6847L45.2261 36.4211C44.6397 35.8359 44.6388 34.8861 45.224 34.2998C45.8092 33.7134 46.759 33.7125 47.3453 34.2977L50.5 37.4462V29.1378L43.3795 22.0312H28.6205ZM42.5 19.0312V3.78125H29.5V19.0312H42.5ZM42.5 53.9688H29.5V69.2188H42.5V53.9688ZM36 25.875C36.8284 25.875 37.5 26.5466 37.5 27.375V35.8778L42.7739 41.1414C43.3603 41.7266 43.3612 42.6764 42.776 43.2627C42.1908 43.8491 41.241 43.85 40.6547 43.2648L34.9404 37.5617C34.6584 37.2803 34.5 36.8983 34.5 36.5V27.375C34.5 26.5466 35.1716 25.875 36 25.875Z" fill="black"/>
</g>
<g clip-path="url(#clip2_39_2)">
<path fill-rule="evenodd" clip-rule="evenodd" d="M90 -18H-18V90H90V-18ZM36 64C51.464 64 64 51.464 64 36C64 20.536 51.464 8 36 8C20.536 8 8 20.536 8 36C8 51.464 20.536 64 36 64Z" fill="#333333"/>
</g>
</g>
<defs>
<clipPath id="clip0_39_2">
<rect width="72" height="72" rx="36" fill="white"/>
</clipPath>
<clipPath id="clip1_39_2">
<rect width="48" height="73" fill="white" transform="translate(12)"/>
</clipPath>
<clipPath id="clip2_39_2">
<rect width="108" height="108" fill="white" transform="translate(-18 -18)"/>
</clipPath>
</defs>
</svg>
