<svg width="108" height="108" viewBox="0 0 108 108" fill="none" xmlns="http://www.w3.org/2000/svg">
<g clip-path="url(#clip0_648_2)">
<rect width="108" height="108" fill="#F9A285"/>
<path fill-rule="evenodd" clip-rule="evenodd" d="M46 24.7812C46.8284 24.7812 47.5 25.4528 47.5 26.2812V37.0312H60.5V26.2812C60.5 25.4528 61.1716 24.7812 62 24.7812C62.8284 24.7812 63.5 25.4528 63.5 26.2812V37.9091L71.0596 45.4539C71.3416 45.7353 71.5 46.1173 71.5 46.5156V55.4462L74.6547 52.2977C75.241 51.7125 76.1908 51.7134 76.776 52.2998C77.3612 52.8861 77.3603 53.8359 76.7739 54.4211L71.5 59.6847V62.4844C71.5 62.8827 71.3416 63.2647 71.0596 63.5461L63.5 71.0909V82.7188C63.5 83.5472 62.8284 84.2188 62 84.2188C61.1716 84.2188 60.5 83.5472 60.5 82.7188V71.9688H47.5V82.7188C47.5 83.5472 46.8284 84.2188 46 84.2188C45.1716 84.2188 44.5 83.5472 44.5 82.7188V71.0909L36.9404 63.5461C36.6584 63.2647 36.5 62.8827 36.5 62.4844V55.8351L33.3453 58.9836C32.759 59.5688 31.8092 59.5679 31.224 58.9815C30.6388 58.3951 30.6397 57.4454 31.2261 56.8602L36.5 51.5966V46.5156C36.5 46.1173 36.6584 45.7353 36.9404 45.4539L44.5 37.9091V26.2812C44.5 25.4528 45.1716 24.7812 46 24.7812ZM46.6205 40.0312L39.5 47.1378V51.5966L44.7739 56.8602C45.3603 57.4454 45.3612 58.3951 44.776 58.9815C44.1908 59.5679 43.241 59.5688 42.6547 58.9836L39.5 55.8351V61.8622L46.6205 68.9688H61.3795L68.5 61.8622V59.6847L63.2261 54.4211C62.6397 53.8359 62.6388 52.8861 63.224 52.2998C63.8092 51.7134 64.759 51.7125 65.3453 52.2977L68.5 55.4462V47.1378L61.3795 40.0312H46.6205ZM54 43.875C54.8284 43.875 55.5 44.5466 55.5 45.375V53.8778L60.7739 59.1414C61.3603 59.7266 61.3612 60.6764 60.776 61.2627C60.1908 61.8491 59.241 61.85 58.6547 61.2648L52.9404 55.5617C52.6584 55.2803 52.5 54.8983 52.5 54.5V45.375C52.5 44.5466 53.1716 43.875 54 43.875Z" fill="black"/>
</g>
<defs>
<clipPath id="clip0_648_2">
<rect width="108" height="108" fill="white"/>
</clipPath>
</defs>
</svg>
