<svg width="25" height="25" viewBox="0 0 25 25" fill="none" xmlns="http://www.w3.org/2000/svg">
<path d="M15.9999 1L17.5 4.00012L3.50006 11.0001L2 8L6.4 5.8L5 3L9 1L10.5 3.8L15.9999 1Z" fill="white"/>
<path d="M6.4 5.8L2 8L3.50006 11.0001L17.5 4.00012L15.9999 1L10.5 3.8M6.4 5.8L10.5 3.8M6.4 5.8L5 3L9 1L10.5 3.8" stroke="black" stroke-width="2" stroke-linejoin="round"/>
<path d="M19 13H7V24H19V13Z" fill="white"/>
<path d="M11 16V21M15 16V21M7 13H19V24H7V13Z" stroke="black" stroke-width="2" stroke-linecap="round" stroke-linejoin="round"/>
</svg>
