<svg width="25" height="25" viewBox="0 0 25 25" fill="none" xmlns="http://www.w3.org/2000/svg">
<path d="M9 17H13H16L18 15.1176V9V2.88235L16 1H13H9L7 2.88235V9V15.1176L9 17Z" fill="white"/>
<path d="M13 1H9L7 2.88235V9M13 1H16L18 2.88235V9M13 1V4M13 17H16L18 15.1176V9M13 17H9L7 15.1176V9M13 17V14M18 9H13M7 9H13M18 5L13 4M13 4L7 5M13 4V9M18 13L13 14M13 14L7 13M13 14V9" stroke="black" stroke-width="2" stroke-linejoin="round"/>
<path fill-rule="evenodd" clip-rule="evenodd" d="M3.34236 17.2467C3.7584 16.8835 4.39012 16.9263 4.75333 17.3423L7.07351 20H17.9265L20.2467 17.3423C20.6099 16.9263 21.2416 16.8835 21.6577 17.2467C22.0737 17.6099 22.1165 18.2416 21.7533 18.6577L19.1343 21.6577C18.9444 21.8752 18.6697 22 18.381 22L14 22V25H11V22L6.61906 22C6.33031 22 6.05565 21.8752 5.86574 21.6577L3.2467 18.6577C2.88348 18.2416 2.92631 17.6099 3.34236 17.2467Z" fill="black"/>
</svg>
