<svg width="25" height="25" viewBox="0 0 25 25" fill="none" xmlns="http://www.w3.org/2000/svg">
<g clip-path="url(#clip0_3681_55)">
<path d="M10 5L6 4L3 5L1 18L7 21L9 19H16L18 21L24 18L22 5L19 4L15 5H10Z" fill="white"/>
<path d="M18 14V11H15V14H18Z" fill="white"/>
<path d="M10 14V11H7V14H10Z" fill="white"/>
<path d="M10 5L6 4L3 5L1 18L7 21L9 19H16L18 21L24 18L22 5L19 4L15 5H10Z" stroke="black" stroke-width="2"/>
<path d="M18 14V11H15V14H18Z" stroke="black" stroke-width="2"/>
<path d="M10 14V11H7V14H10Z" stroke="black" stroke-width="2"/>
</g>
<defs>
<clipPath id="clip0_3681_55">
<rect width="25" height="25" fill="white"/>
</clipPath>
</defs>
</svg>
