<?xml version="1.0" encoding="UTF-8" standalone="no"?>
<svg
   width="83.330421"
   height="58.420189"
   viewBox="0 0 83.330421 58.420189"
   fill="none"
   version="1.1"
   id="svg21"
   sodipodi:docname="rebble_80x80_discord.svg"
   inkscape:version="1.1.2 (0a00cf5339, 2022-02-04)"
   xmlns:inkscape="http://www.inkscape.org/namespaces/inkscape"
   xmlns:sodipodi="http://sodipodi.sourceforge.net/DTD/sodipodi-0.dtd"
   xmlns="http://www.w3.org/2000/svg"
   xmlns:svg="http://www.w3.org/2000/svg">
  <sodipodi:namedview
     id="namedview23"
     pagecolor="#ffffff"
     bordercolor="#666666"
     borderopacity="1.0"
     inkscape:pageshadow="2"
     inkscape:pageopacity="0.0"
     inkscape:pagecheckerboard="0"
     showgrid="false"
     inkscape:zoom="28.76"
     inkscape:cx="13.317107"
     inkscape:cy="8.0319889"
     inkscape:window-width="3440"
     inkscape:window-height="1415"
     inkscape:window-x="0"
     inkscape:window-y="0"
     inkscape:window-maximized="1"
     inkscape:current-layer="svg21" />
  <g
     clip-path="url(#clip0_3681_55)"
     id="g14"
     transform="matrix(3.3332168,0,0,3.0336284,0,-8.9772071)">
    <path
       d="M 10,5 6,4 3,5 1,18 7,21 9,19 h 7 l 2,2 6,-3 L 22,5 19,4 15,5 Z"
       fill="#ffffff"
       id="path2" />
    <path
       d="m 18,14 v -3 h -3 v 3 z"
       fill="#ffffff"
       id="path4" />
    <path
       d="M 10,14 V 11 H 7 v 3 z"
       fill="#ffffff"
       id="path6" />
    <path
       d="M 10,5 6,4 3,5 1,18 7,21 9,19 h 7 l 2,2 6,-3 L 22,5 19,4 15,5 Z"
       stroke="#000000"
       stroke-width="2"
       id="path8" />
    <path
       d="m 18,14 v -3 h -3 v 3 z"
       stroke="#000000"
       stroke-width="2"
       id="path10" />
    <path
       d="M 10,14 V 11 H 7 v 3 z"
       stroke="#000000"
       stroke-width="2"
       id="path12" />
  </g>
  <defs
     id="defs19">
    <clipPath
       id="clip0_3681_55">
      <rect
         width="25"
         height="25"
         fill="#ffffff"
         id="rect16"
         x="0"
         y="0" />
    </clipPath>
  </defs>
</svg>
