<svg width="25" height="25" viewBox="0 0 25 25" fill="none" xmlns="http://www.w3.org/2000/svg">
<path d="M8 16H1V9H8V12V13V16Z" fill="white"/>
<path d="M23 8H16V4V1H23V8Z" fill="white"/>
<path d="M23 24H16V21V17H23V24Z" fill="white"/>
<path d="M8 16V17C8.55228 17 9 16.5523 9 16H8ZM1 16H0C0 16.5523 0.447715 17 1 17L1 16ZM1 9V8C0.447715 8 0 8.44772 0 9H1ZM8 9H9C9 8.44772 8.55228 8 8 8V9ZM23 8V9C23.5523 9 24 8.55228 24 8H23ZM16 8H15C15 8.55228 15.4477 9 16 9V8ZM16 1V0C15.4477 0 15 0.447715 15 1L16 1ZM23 1H24C24 0.447715 23.5523 0 23 0V1ZM23 24V25C23.5523 25 24 24.5523 24 24H23ZM16 24H15C15 24.5523 15.4477 25 16 25V24ZM16 17V16C15.4477 16 15 16.4477 15 17H16ZM23 17H24C24 16.4477 23.5523 16 23 16V17ZM15.2929 3.29289L7.29289 11.2929L8.70711 12.7071L16.7071 4.70711L15.2929 3.29289ZM7.29289 13.7071L15.2929 21.7071L16.7071 20.2929L8.70711 12.2929L7.29289 13.7071ZM8 15H1V17H8V15ZM2 16V9H0V16H2ZM1 10H8V8H1V10ZM23 7H16V9H23V7ZM16 2H23V0H16V2ZM22 1V8H24V1H22ZM23 23H16V25H23V23ZM16 18H23V16H16V18ZM22 17V24H24V17H22ZM17 8V4H15V8H17ZM17 4V1H15V4H17ZM7 9V12H9V9H7ZM7 12V13H9V12H7ZM7 13V16H9V13H7ZM17 24V21H15V24H17ZM17 21V17H15V21H17Z" fill="black"/>
</svg>
