<svg width="25" height="25" viewBox="0 0 25 25" fill="none" xmlns="http://www.w3.org/2000/svg">
<g clip-path="url(#clip0_900_18)">
<path d="M4 13L8 11L19 6L21 10L10 15L6 17L4 13Z" fill="white"/>
<path d="M12 15L12.7593 14.3492L11.9002 13.347L11.1679 14.4453L12 15ZM11 24C11 24.5523 11.4477 25 12 25C12.5523 25 13 24.5523 13 24H11ZM17.2407 22.6508C17.6002 23.0701 18.2315 23.1187 18.6508 22.7593C19.0701 22.3998 19.1187 21.7685 18.7593 21.3492L17.2407 22.6508ZM7.16795 20.4453C6.8616 20.9048 6.98577 21.5257 7.4453 21.8321C7.90483 22.1384 8.5257 22.0142 8.83205 21.5547L7.16795 20.4453ZM5.44721 15.8944C5.94119 15.6474 6.14142 15.0468 5.89443 14.5528C5.64744 14.0588 5.04676 13.8586 4.55279 14.1056L5.44721 15.8944ZM2 16.5L1.10557 16.9472C1.35256 17.4412 1.95324 17.6414 2.44721 17.3944L2 16.5ZM2.39443 15.0528C2.14744 14.5588 1.54676 14.3586 1.05279 14.6056C0.558808 14.8526 0.358584 15.4532 0.605573 15.9472L2.39443 15.0528ZM19 6L19.8944 5.55279C19.6539 5.07169 19.0759 4.86706 18.5862 5.08963L19 6ZM4 13L3.55279 12.1056C3.05881 12.3526 2.85858 12.9532 3.10557 13.4472L4 13ZM6 17L5.10557 17.4472C5.35256 17.9412 5.95324 18.1414 6.44721 17.8944L6 17ZM21 10L21.4138 10.9104C21.6611 10.798 21.852 10.5898 21.9427 10.3337C22.0333 10.0777 22.0159 9.79575 21.8944 9.55279L21 10ZM8 11L7.5862 10.0896L7.56934 10.0973L7.55279 10.1056L8 11ZM11 15V24H13V15H11ZM11.2407 15.6508L17.2407 22.6508L18.7593 21.3492L12.7593 14.3492L11.2407 15.6508ZM11.1679 14.4453L7.16795 20.4453L8.83205 21.5547L12.8321 15.5547L11.1679 14.4453ZM2.89443 16.0528L2.39443 15.0528L0.605573 15.9472L1.10557 16.9472L2.89443 16.0528ZM3.10557 13.4472L5.10557 17.4472L6.89443 16.5528L4.89443 12.5528L3.10557 13.4472ZM21.8944 9.55279L19.8944 5.55279L18.1056 6.44721L20.1056 10.4472L21.8944 9.55279ZM7.10557 11.4472L9.10557 15.4472L10.8944 14.5528L8.89443 10.5528L7.10557 11.4472ZM4.55279 14.1056L1.55279 15.6056L2.44721 17.3944L5.44721 15.8944L4.55279 14.1056ZM18.5862 5.08963L7.5862 10.0896L8.4138 11.9104L19.4138 6.91037L18.5862 5.08963ZM7.55279 10.1056L3.55279 12.1056L4.44721 13.8944L8.44721 11.8944L7.55279 10.1056ZM6.44721 17.8944L10.4472 15.8944L9.55279 14.1056L5.55279 16.1056L6.44721 17.8944ZM10.4138 15.9104L21.4138 10.9104L20.5862 9.08963L9.5862 14.0896L10.4138 15.9104Z" fill="black"/>
<path fill-rule="evenodd" clip-rule="evenodd" d="M3 0C3.55228 0 4 0.447715 4 1V2H5C5.55228 2 6 2.44772 6 3C6 3.55228 5.55228 4 5 4H4V5C4 5.55228 3.55228 6 3 6C2.44772 6 2 5.55228 2 5V4H1C0.447715 4 0 3.55228 0 3C0 2.44772 0.447715 2 1 2H2V1C2 0.447715 2.44772 0 3 0Z" fill="black"/>
<path d="M13 1C13 0.447715 13.4477 0 14 0C14.5523 0 15 0.447715 15 1C15 1.55228 14.5523 2 14 2C13.4477 2 13 1.55228 13 1Z" fill="black"/>
<path d="M23 4C23 3.44772 23.4477 3 24 3C24.5523 3 25 3.44772 25 4C25 4.55228 24.5523 5 24 5C23.4477 5 23 4.55228 23 4Z" fill="black"/>
<path d="M8 5C8 4.44772 8.44772 4 9 4C9.55228 4 10 4.44772 10 5C10 5.55228 9.55228 6 9 6C8.44772 6 8 5.55228 8 5Z" fill="black"/>
</g>
<defs>
<clipPath id="clip0_900_18">
<rect width="25" height="25" fill="white"/>
</clipPath>
</defs>
</svg>
