<svg width="25" height="25" viewBox="0 0 25 25" fill="none" xmlns="http://www.w3.org/2000/svg">
<path d="M4 22V3H8H17H19L22 6V22H4Z" fill="white"/>
<path d="M17 15L13 19L9 15V12L11 10L13 12L15 10L17 12V15Z" fill="white"/>
<path fill-rule="evenodd" clip-rule="evenodd" d="M3 3C3 2.44772 3.44772 2 4 2H19C19.2652 2 19.5196 2.10536 19.7071 2.29289L22.7071 5.29289C22.8946 5.48043 23 5.73478 23 6V22C23 22.5523 22.5523 23 22 23H4C3.44772 23 3 22.5523 3 22V3ZM5 4V21H21V6.41421L18.5858 4H18V7C18 7.55228 17.5523 8 17 8H8C7.44772 8 7 7.55228 7 7V4H5ZM9 4V6H16V4H9ZM10.2929 9.29289C10.6834 8.90237 11.3166 8.90237 11.7071 9.29289L13 10.5858L14.2929 9.29289C14.6834 8.90237 15.3166 8.90237 15.7071 9.29289L17.7071 11.2929C17.8946 11.4804 18 11.7348 18 12V15C18 15.2652 17.8946 15.5196 17.7071 15.7071L13.7071 19.7071C13.3166 20.0976 12.6834 20.0976 12.2929 19.7071L8.29289 15.7071C8.10536 15.5196 8 15.2652 8 15V12C8 11.7348 8.10536 11.4804 8.29289 11.2929L10.2929 9.29289ZM10 12.4142V14.5858L13 17.5858L16 14.5858V12.4142L15 11.4142L13.7071 12.7071C13.3166 13.0976 12.6834 13.0976 12.2929 12.7071L11 11.4142L10 12.4142Z" fill="black"/>
</svg>
