<svg width="25" height="25" viewBox="0 0 25 25" fill="none" xmlns="http://www.w3.org/2000/svg">
<g clip-path="url(#clip0_114_87)">
<path d="M3 15V6L8 1H17L22 6V15L17 20H8L3 15Z" fill="white"/>
<path d="M10.5 10.5L12.5 12.5L14.5 10.5L12.5 8.5L10.5 10.5Z" fill="white"/>
<path d="M1 24H24M7 9V7L9 5H11M18 12V14L16 16H14M3 15V6L8 1H17L22 6V15L17 20H8L3 15ZM12.5 12.5L10.5 10.5L12.5 8.5L14.5 10.5L12.5 12.5Z" stroke="black" stroke-width="2" stroke-linecap="round" stroke-linejoin="round"/>
</g>
<defs>
<clipPath id="clip0_114_87">
<rect width="25" height="25" fill="white"/>
</clipPath>
</defs>
</svg>
