<svg width="80" height="80" viewBox="0 0 80 80" fill="none" xmlns="http://www.w3.org/2000/svg">
<path d="M60 74H72L66 68L64 64V56L70 44V26L66 18L59 11L47 7H35L21 14L16 24L13 36L10 39L7 48V56L11 58L19 54L27 62L48 68L60 74Z" fill="white" stroke="black" stroke-width="4" stroke-linecap="round" stroke-linejoin="round"/>
<path d="M23.5 35.5L29.5 29.5L26 22.5M42.5 24.5L36.5 30.5L40 37.5M25.5 43.5L28.5 40.5L30.5 44.5L34.5 40.5L36.5 44.5" stroke="black" stroke-width="3" stroke-linecap="round" stroke-linejoin="round"/>
<path d="M49 42L45 50V58L49 60L52 57L57 54.5" stroke="black" stroke-width="4" stroke-linecap="round" stroke-linejoin="round"/>
</svg>
