<svg width="80" height="80" viewBox="0 0 80 80" fill="none" xmlns="http://www.w3.org/2000/svg">
<path d="M58.5 72L72 73.5L66 68L64 64L65 56L70 48L72 31L67 17L57 10L35 7L21 14L16 24L13 38L10 40L7 48V56L11 57L17 53L27 62L51 68L58.5 72Z" fill="white"/>
<path fill-rule="evenodd" clip-rule="evenodd" d="M34.3292 5.65836C34.5992 5.52337 34.9036 5.47297 35.2027 5.51375L57.2027 8.51375C57.4392 8.54601 57.6646 8.63425 57.8602 8.77115L67.8602 15.7712C68.115 15.9495 68.308 16.2026 68.4126 16.4955L73.4126 30.4955C73.4903 30.7131 73.5167 30.9458 73.4897 31.1753L71.4897 48.1753C71.4638 48.3954 71.3895 48.607 71.272 48.795L66.4474 56.5144L65.5448 63.7354L67.2178 67.0814L73.0136 72.3943C73.492 72.8328 73.6341 73.5293 73.3658 74.1203C73.0974 74.7112 72.4794 75.0625 71.8344 74.9908L58.3344 73.4908C58.1453 73.4698 57.962 73.413 57.7941 73.3235L50.4571 69.4104L26.6362 63.4552C26.3984 63.3958 26.1788 63.2789 25.9966 63.1149L16.8626 54.8944L11.8321 58.2481C11.4804 58.4825 11.0462 58.5577 10.6362 58.4552L6.6362 57.4552C5.96845 57.2883 5.5 56.6883 5.5 56V48C5.5 47.8201 5.53235 47.6417 5.59551 47.4733L8.59551 39.4733C8.70596 39.1788 8.90621 38.9264 9.16795 38.7519L11.661 37.0899L14.5333 23.6857C14.5598 23.5621 14.6018 23.4423 14.6584 23.3292L19.6584 13.3292C19.8035 13.0389 20.0389 12.8035 20.3292 12.6584L34.3292 5.65836ZM35.2564 8.54885L22.118 15.118L17.4268 24.5005L14.4667 38.3143C14.3848 38.6963 14.1571 39.0313 13.8321 39.2481L11.2346 40.9797L8.5 48.272V54.8288L10.7201 55.3838L16.1679 51.7519C16.7383 51.3717 17.4939 51.4265 18.0034 51.8851L27.726 60.6353L51.3638 66.5448C51.4828 66.5745 51.5977 66.6188 51.7059 66.6765L58.9518 70.541L67.6005 71.5019L64.9864 69.1057C64.8514 68.982 64.7402 68.8346 64.6584 68.6708L62.6584 64.6708C62.5259 64.4059 62.4749 64.1078 62.5116 63.8139L63.5116 55.8139C63.5386 55.5977 63.6125 55.3898 63.728 55.205L68.5496 47.4904L70.4692 31.1737L65.7482 17.9547L56.4374 11.4372L35.2564 8.54885ZM24.1679 20.7519C24.8572 20.2924 25.7885 20.4787 26.2481 21.1679L30.2481 27.168C30.6447 27.7629 30.5663 28.5551 30.0607 29.0607L24.0607 35.0607C23.4749 35.6464 22.5251 35.6464 21.9393 35.0607C21.3536 34.4749 21.3536 33.5251 21.9393 32.9393L27.0698 27.8089L23.7519 22.8321C23.2924 22.1428 23.4787 21.2115 24.1679 20.7519ZM44.0607 21.9393C44.6464 22.5251 44.6464 23.4749 44.0607 24.0607L38.9302 29.1911L42.2481 34.168C42.7076 34.8572 42.5213 35.7885 41.8321 36.2481C41.1428 36.7076 40.2115 36.5213 39.7519 35.8321L35.7519 29.8321C35.3553 29.2371 35.4337 28.4449 35.9393 27.9393L41.9393 21.9393C42.5251 21.3536 43.4749 21.3536 44.0607 21.9393ZM45.5267 38.5955C46.3024 38.8864 46.6954 39.751 46.4045 40.5267L43.5 48.272V54.8288L45.6918 55.3768L52.1281 50.7794C52.8023 50.2979 53.7391 50.454 54.2206 51.1281C54.7021 51.8023 54.546 52.7391 53.8719 53.2206L46.8719 58.2206C46.5142 58.476 46.0626 58.5618 45.6362 58.4552L41.6362 57.4552C40.9684 57.2883 40.5 56.6883 40.5 56V48C40.5 47.8201 40.5323 47.6417 40.5955 47.4733L43.5955 39.4733C43.8864 38.6976 44.751 38.3046 45.5267 38.5955ZM28 38.5C28.4721 38.5 28.9167 38.7223 29.2 39.1L31 41.5L32.8 39.1C33.0833 38.7223 33.5279 38.5 34 38.5C34.4721 38.5 34.9167 38.7223 35.2 39.1L38.2 43.1C38.6971 43.7627 38.5627 44.7029 37.9 45.2C37.2373 45.6971 36.2971 45.5627 35.8 44.9L34 42.5L32.2 44.9C31.9167 45.2777 31.4721 45.5 31 45.5C30.5279 45.5 30.0833 45.2777 29.8 44.9L28 42.5L26.2 44.9C25.7029 45.5627 24.7627 45.6971 24.1 45.2C23.4373 44.7029 23.3029 43.7627 23.8 43.1L26.8 39.1C27.0833 38.7223 27.5279 38.5 28 38.5Z" fill="black"/>
</svg>
