<?xml version="1.0" encoding="UTF-8"?><svg id="Layer_1" xmlns="http://www.w3.org/2000/svg" viewBox="0 0 80 80"><polygon points="22 12 58 12 68 22 68 58 58 68 22 68 12 58 12 22 22 12" style="fill:#fff; stroke:#000; stroke-linecap:round; stroke-linejoin:round; stroke-width:4px;"/><polygon points="45.68 21.25 55.97 21.25 58.83 24.11 58.83 34.4 55.97 37.25 45.68 37.25 42.83 34.4 42.83 24.11 45.68 21.25" style="fill:#fff; stroke:#000; stroke-linecap:round; stroke-linejoin:round; stroke-width:2.91px;"/><polygon points="23.68 43.51 33.96 43.51 36.82 46.37 36.82 56.65 33.96 59.51 23.68 59.51 20.82 56.65 20.82 46.37 23.68 43.51" style="fill:#fff; stroke:#000; stroke-linecap:round; stroke-linejoin:round; stroke-width:2.91px;"/><polygon points="48.25 25.25 53.4 25.25 54.83 26.68 54.83 31.82 53.4 33.25 48.25 33.25 46.83 31.82 46.83 26.68 48.25 25.25"/><polygon points="36.82 51.51 55.97 37.25 45.68 37.25 42.83 34.4 42.83 24.11 28.82 43.51 33.96 43.51 36.82 46.37 36.82 51.51"/><polygon points="12 28.12 12 41.26 24.82 54.08 26.25 55.51 31.39 55.51 32.82 54.08 32.82 48.94 12 28.12"/></svg>