<svg width="80" height="80" viewBox="0 0 80 80" fill="none" xmlns="http://www.w3.org/2000/svg">
<path d="M24 16L22 12L10 16L2 40V60L18 68H24L28 60H52L56 68H62L78 60V40L70 16L58 12L56 16H24Z" fill="white" stroke="black" stroke-width="4" stroke-linejoin="round"/>
<path d="M33 47L33 41L31 39H25L23 41V47L25 49H31L33 47Z" stroke="black" stroke-width="4" stroke-linejoin="round"/>
<path d="M55 39H49L47 41V47L49 49H55L57 47V41L55 39Z" stroke="black" stroke-width="4" stroke-linejoin="round"/>
<path d="M28 60L22 57M52 60L58 57" stroke="black" stroke-width="3" stroke-linecap="round" stroke-linejoin="round"/>
</svg>
