<svg width="80" height="80" viewBox="0 0 80 80" fill="none" xmlns="http://www.w3.org/2000/svg">
<g clip-path="url(#clip0_1_13)">
<mask id="mask0_1_13" style="mask-type:luminance" maskUnits="userSpaceOnUse" x="0" y="0" width="80" height="80">
<path d="M80 0H0V80H80V0Z" fill="white"/>
</mask>
<g mask="url(#mask0_1_13)">
<path d="M14 9H56L71 24V56L67 60H38L26 72H24V52L31 45H56V25H24V60H14L9 56V14L14 9Z" fill="white"/>
<path d="M14 9H56L71 24V56L67 60H38L26 72H24V52L31 45H56V25H24V60H14L9 56V14L14 9Z" stroke="black" stroke-width="4" stroke-linejoin="round"/>
<path d="M22.5 24.5H10.5" stroke="black" stroke-width="3" stroke-linejoin="round"/>
<path d="M22.5 45.5H10.5" stroke="black" stroke-width="3" stroke-linejoin="round"/>
<path d="M69 24.5H56.5" stroke="black" stroke-width="3" stroke-linejoin="round"/>
<path d="M56.5 24.5V11" stroke="black" stroke-width="3" stroke-linejoin="round"/>
<path d="M23.5 25.5V10.5" stroke="black" stroke-width="3" stroke-linejoin="round"/>
</g>
</g>
<defs>
<clipPath id="clip0_1_13">
<rect width="80" height="80" fill="white"/>
</clipPath>
</defs>
</svg>
