<?xml version="1.0" encoding="UTF-8"?>
<!-- Created with Inkscape (http://www.inkscape.org/) -->
<svg width="25" height="25" version="1.1" viewBox="0 0 25 25" xml:space="preserve" xmlns="http://www.w3.org/2000/svg"><g fill="#fff" stroke="#000" stroke-linecap="round" stroke-linejoin="round" stroke-width="2"><path d="m10 20v2l1 1h3l1-1v-2"/><path d="m1 11v6l2 2h3l2-2v-6l-2-2h-3z"/><path d="m17 11v6l2 2h3l2-2v-6l-2-2h-3z"/></g><g fill="none" stroke="#000" stroke-linecap="round" stroke-linejoin="round" stroke-width="2"><path d="m5 13v3"/><path d="m20 13v3"/><path d="m1 7 1-3 2 2 1-3 5 5m5 0 5-5 1 3 2-2 1 2.8019"/></g><path d="m16 19v1h-7v-1l2-2h3z" fill="#fff" stroke="#000" stroke-linecap="round" stroke-linejoin="round" stroke-width="2"/></svg>
