<?xml version="1.0" encoding="UTF-8"?>
<svg width="50" height="50" viewBox="0 0 50 50" version="1.1" xml:space="preserve" xmlns="http://www.w3.org/2000/svg"><path d="m38.5 31.5v4l-7 7h-12l-9-9v-17l9-9h12l11 10 4-5-12-11h-18l-12 12v23l12 12h18l10-10v-10l-7-7h-3v-5l-4-4h-10l-3 3 4 3h6l1 1v2h-8l-4 4v8l4 4h10l4-4v-6z" fill="#fff" stroke="#000" stroke-linecap="round" stroke-linejoin="round" stroke-width="3"/><path d="m28.5 27.5h-5l-1 1v2l1 1h4l1-1z" fill="none" stroke="#000" stroke-linecap="round" stroke-linejoin="round" stroke-width="3"/></svg>
