<?xml version="1.0" encoding="UTF-8"?>
<svg width="50" height="50" version="1.1" xml:space="preserve" xmlns="http://www.w3.org/2000/svg"><path d="m14 49h9m4 0h7l2-2m3-3 5-5m3-3 2-2v-7m0-4v-7l-2-2m-3-3-5-5m-3-3-2-2h-7m-4 0h-7l-2 2m-3 3-5 5m-3 3-2 2v7m0 4v9" fill="none" stroke="#000" stroke-dashoffset=".2" stroke-linecap="round" stroke-linejoin="round" stroke-miterlimit="3.2" stroke-width="2"/><path d="m5.5 17.5 12-12h15l12 12v15l-12 12h-21l-9 3 3-9z" fill="#fff" stroke="#000" stroke-dashoffset=".2" stroke-linecap="round" stroke-linejoin="round" stroke-miterlimit="3.2" stroke-width="3"/></svg>
