<?xml version="1.0" encoding="UTF-8"?>
<!-- Created with Inkscape (http://www.inkscape.org/) -->
<svg width="50" height="50" version="1.1" viewBox="0 0 50 50" xml:space="preserve" xmlns="http://www.w3.org/2000/svg"><g fill="#fff" stroke="#000" stroke-linecap="round" stroke-linejoin="round" stroke-width="3"><path d="m29.5 38.5v3l-2 2h-5l-2-2v-3"/><path d="m30.5 35.5-3-3h-5l-3 3v2l5.5 2 5.5-2z"/><path d="m3.5 22.5v10l4 4h6l4-4v-10l-4-4h-6z"/></g><path d="m12 24v7" fill="none" stroke="#000" stroke-linecap="round" stroke-linejoin="round" stroke-width="4"/><path d="m46.5 22.5v10l-4 4h-6l-4-4v-10l4-4h6z" fill="#fff" stroke="#000" stroke-linecap="round" stroke-linejoin="round" stroke-width="3"/><g fill="none" stroke="#000" stroke-linecap="round" stroke-linejoin="round"><path d="m38 24v7" stroke-width="4"/><path d="m3.5 16.5 3-6 3 3 2-4 9 9" stroke-width="3"/><path d="m46.5 16.5-3-6-3 3-2-4-9 9" stroke-width="3"/></g></svg>
