<?xml version="1.0" encoding="UTF-8"?>
<!-- Created with Inkscape (http://www.inkscape.org/) -->
<svg width="80" height="80" version="1.1" viewBox="0 0 80 80" xml:space="preserve" xmlns="http://www.w3.org/2000/svg"><g stroke="#000" stroke-linecap="round" stroke-linejoin="round"><g fill="#fff" stroke-width="4"><path d="m61 2 6 6v30l11 22-3 3h-4l-8-4-10 10h-26l-10-10-8 4h-4l-3-3 11-22v-30l6-6 18 6h6z"/><path d="m26 69-3 3 3 3h8l3-3-3-3z"/><path d="m46 69-3 3 3 3h8l3-3-3-3z"/></g><g fill="none"><g stroke-width="3"><path d="m45.5 35.5-3-3h-5l-3 3v2l5.5 2 5.5-2z"/><path d="m44.5 38.5v3l-2 2h-5l-2-2v-3"/><path d="m18.5 22.5v10l4 4h6l4-4v-10l-4-4h-6z"/></g><path d="m27 24v7" stroke-width="4"/><path d="m61.5 22.5v10l-4 4h-6l-4-4v-10l4-4h6z" stroke-width="3"/><path d="m53 24v7" stroke-width="4"/><g stroke-width="3"><path d="m18.5 16.5 3-6 3 3 2-4 9 9"/><path d="m61.5 16.5-3-6-3 3-2-4-9 9"/><path d="m30.5 52.5 3 3 3-3"/><path d="m44.5 52.5 3 3 3-3"/><path d="m37.5 59.5 3 3 3-3"/></g></g></g></svg>
