<?xml version="1.0" encoding="UTF-8"?>
<svg width="80" height="80" version="1.1" viewBox="0 0 80 80" xml:space="preserve" xmlns="http://www.w3.org/2000/svg"><path d="m36.5 78.5h7m9 0h5l3-3m5-5 5-5m5-5 3-3v-5m0-9v-7m0-9v-5l-3-3m-5-5-5-5m-5-5-3-3h-5m-9 0h-7m-9 0h-5l-3 3m-5 5-5 5m-5 5-3 3v5m0 9v8m26 34h-5l-3-3m-18-22v5l3 3" fill="none" stroke="#000" stroke-dashoffset=".2" stroke-linecap="round" stroke-linejoin="round" stroke-miterlimit="3.2" stroke-width="3"/><path d="m9 27 18-18h26l18 18v26l-18 18h-26l-4-4-15 5 5-15-4-4z" fill="#fff" stroke="#000" stroke-dashoffset=".2" stroke-linecap="round" stroke-linejoin="round" stroke-miterlimit="3.2" stroke-width="4"/></svg>
