<svg width="50" height="50" version="1.1" viewBox="0 0 50 50" xml:space="preserve" xmlns="http://www.w3.org/2000/svg">
  
  
  
  <g stroke="#000" stroke-linecap="round" stroke-linejoin="round" stroke-width="1.47">
      <path d="m4.5 20.5-3 3v8l2 2h2l2 6 12 6h11l12-6 2-6h2l2-2.5v-7.5l-3-3h-4l-2 2-9-4h-12l-8 4-2-2z" fill="#fff" stroke-width="3" style="paint-order:normal"/>
      <path d="m24.5 17.5 2-6 6.5-2" fill="none" stroke-width="3" style="paint-order:normal"/><g fill="#fff" stroke-width="3">
      
      <path d="m17.5 26.5h-1v4h1z"/>
      <path d="m33.5 26.5h-1v4h1z"/>
      <path d="m31.5 10.5v-3l3-3h3l3 3v3l-3 3h-3z" stroke-miterlimit="10"/>
      </g><g stroke-miterlimit="1"><path d="m7.5 32.5-2 1" fill="none" stroke-width="2"/>
      <path d="m42.5 32.5 2 1" fill="none" stroke-width="2"/>
    <path d="m18.5 35.5h13v2.5l-2.5 2.5h-8l-2.5-2.5z" stroke-width="1"/></g></g>
  
</svg>
