<svg width="80" height="80" version="1.1" viewBox="0 0 80 80" xml:space="preserve" xmlns="http://www.w3.org/2000/svg"><g stroke="#000" stroke-linecap="round" stroke-linejoin="round"><g stroke-width="4"><path d="m31 17-8 4-2-2h-5l-3 3v6l2 4h3v2l3 6 8 4-6 6v4l3 9 6 2 1 2v3l-8 4v4h30v-4l-8-4v-3l1-2 6-2 3-9v-4l-6-6 8-4 3-6v-2h3l2-4v-6l-3-3h-5l-2 2-8-4z" fill="#fff" stroke-miterlimit="1" style="paint-order:normal"/><path d="m40 15 4-12 11 4" fill="none" style="paint-order:normal"/><path d="m55 9v-4l2-2h4l2 2v4l-2 2h-4z" fill="#fff" stroke-miterlimit="10"/></g><g stroke-width="2"><path d="m33 29-1 1h-1l-1-1v-4l1-1h1l1 1z"/><path d="m50 29-1 1h-1l-1-1v-4l1-1h1l1 1z"/><path d="m33 35v2l3 3h8l3-3v-2z" stroke-miterlimit="1"/></g><g fill="#fff" stroke-miterlimit="1"><path d="m18 32 2-1" stroke-width="3"/><path d="m62 32-2-1" stroke-width="3"/><path d="m40 78v-9" stroke-width="4"/><path d="m33 65.5-4-12" stroke-width="3"/><path d="m47 65.5 4-12" stroke-width="3"/></g><path d="m25.5 41.5 8 4h13l8-4" fill="none" stroke-miterlimit="1" stroke-width="3" style="paint-order:normal"/></g></svg>
