<svg width="25" height="25" version="1.1" viewBox="0 0 25 25" xml:space="preserve" xmlns="http://www.w3.org/2000/svg"><g stroke="#000" stroke-linecap="round" stroke-linejoin="round" stroke-width="2"><path d="m3 11-2 2v2l2 2h1v3l6 3h5l6-3v-3h1l2-2v-2l-2-2h-2l-2 1-3-1h-5l-3 1-2-1z" fill="#fff" style="paint-order:normal"/><path d="m13 10 1-3 3-1" fill="none" style="paint-order:normal"/><g fill="#fff"><path d="m10 19 1 1h3l1-1z" stroke-miterlimit="1"/><path d="m9 15v1z"/><path d="m16 16v-1z"/><path d="m16 6v-2l1-1h2l1 1v2l-1 1h-2z" stroke-miterlimit="10"/><path d="M 4.5,16.5 4,17" stroke-miterlimit="1"/><path d="M 20.5,16.5 21,17" stroke-miterlimit="1"/></g></g></svg>
