<svg id="Comments" inkscape:version="1.4.3 (0d15f75, 2025-12-25)" sodipodi:docname="SimpleX_80px.svg" version="1.2" viewBox="0 0 80 80" xml:space="preserve" xmlns="http://www.w3.org/2000/svg" xmlns:inkscape="http://www.inkscape.org/namespaces/inkscape" xmlns:sodipodi="http://sodipodi.sourceforge.net/DTD/sodipodi-0.dtd"><sodipodi:namedview bordercolor="#000000" borderopacity="0.25" inkscape:current-layer="Comments" inkscape:cx="75.186448" inkscape:cy="-5.4301323" inkscape:deskcolor="#d1d1d1" inkscape:pagecheckerboard="0" inkscape:pageopacity="0.0" inkscape:showpageshadow="2" inkscape:window-height="1657" inkscape:window-maximized="0" inkscape:window-width="2477" inkscape:window-x="2815" inkscape:window-y="1497" inkscape:zoom="2.3940485" pagecolor="#ffffff" showgrid="true" showguides="true"><inkscape:grid color="#dee500" opacity=".14902" empcolor="#0099e5" empopacity="0.30196078" empspacing="2" enabled="true" originx="0" originy="0" spacingx="0.5" spacingy="0.5" units="px" visible="true"/><sodipodi:guide inkscape:locked="false" orientation="0,-1" position="39,40"/><sodipodi:guide inkscape:locked="false" orientation="1,0" position="40,54"/></sodipodi:namedview>



<path d="m30 6-7 7 10 10-10 10 7 7 10-10 10 10-10 10-10-10-7 7 10 10-10 10 7 7 10-10 10 10 7-7-10-10 10-10 10 10 7-7-10-10 10-10-7-7-10 10-10-10 10-10-7-7-10 10z" fill="#fff" stroke="#000" stroke-linecap="square" stroke-miterlimit="2" stroke-width="4" inkscape:label="right three X"/><path d="m6 30 7-7 10 10 10-10 7 7-10 10 10 10-7 7-10-10-10 10-7-7 10-10z" fill="#fff" stroke="#000" stroke-linecap="square" stroke-miterlimit="2" stroke-width="4" inkscape:label="left X" sodipodi:nodetypes="ccccccccccccc"/></svg>
