<svg id="Comments" inkscape:version="1.4.3 (0d15f75, 2025-12-25)" sodipodi:docname="SimpleX_25px_3.svg" version="1.2" viewBox="0 0 25 25" xml:space="preserve" xmlns="http://www.w3.org/2000/svg" xmlns:inkscape="http://www.inkscape.org/namespaces/inkscape" xmlns:sodipodi="http://sodipodi.sourceforge.net/DTD/sodipodi-0.dtd"><sodipodi:namedview bordercolor="#000000" borderopacity="0.25" inkscape:current-layer="Comments" inkscape:cx="4.48594" inkscape:cy="6.2917209" inkscape:deskcolor="#d1d1d1" inkscape:pagecheckerboard="0" inkscape:pageopacity="0.0" inkscape:showpageshadow="2" inkscape:window-height="2018" inkscape:window-maximized="0" inkscape:window-width="3047" inkscape:window-x="2215" inkscape:window-y="1413" inkscape:zoom="26.304409" pagecolor="#ffffff" showgrid="true"><inkscape:grid color="#dee500" opacity=".14902" empcolor="#0099e5" empopacity="0.30196078" empspacing="2" enabled="true" originx="0" originy="0" spacingx="0.5" spacingy="0.5" units="px" visible="true"/></sodipodi:namedview><g fill="#fff" stroke-miterlimit="2"><g stroke="#000" stroke-linecap="round" stroke-width="2">



<path d="m9 2-3 3 3 3-2 2-3-3-3 3 3 3-3 3 3 3 3-3 2 2-3 3 3 3 3-3 3 3 3-3-3-3 2-2 3 3 3-3-3-3 3-3-3-3-3 3-2-2 3-3-3-3-3 3zm3 9 2 2-2 2-2-2z" stroke-linejoin="round" inkscape:label="Xs" sodipodi:nodetypes="cccccccccccccccccccccccccccccccccc"/><path d="m11.5 9-0.5-0.5" inkscape:label="end piece NE" sodipodi:nodetypes="cc"/><path d="m11.5 17-0.5 0.5" inkscape:label="end piece SE" sodipodi:nodetypes="cc"/></g><path d="m12 12.5 0.5 0.5-0.5 0.5-0.5-0.5z" stroke-width="0" sodipodi:nodetypes="ccccc"/></g></svg>
