<svg id="Comments" inkscape:version="1.4.3 (0d15f75, 2025-12-25)" sodipodi:docname="SimpleX_50px.svg" version="1.2" viewBox="0 0 50 50" xml:space="preserve" xmlns="http://www.w3.org/2000/svg" xmlns:inkscape="http://www.inkscape.org/namespaces/inkscape" xmlns:sodipodi="http://sodipodi.sourceforge.net/DTD/sodipodi-0.dtd"><sodipodi:namedview bordercolor="#000000" borderopacity="0.25" inkscape:current-layer="Comments" inkscape:cx="-40.544471" inkscape:cy="81.892688" inkscape:deskcolor="#d1d1d1" inkscape:pagecheckerboard="0" inkscape:pageopacity="0.0" inkscape:showpageshadow="2" inkscape:window-height="2070" inkscape:window-maximized="0" inkscape:window-width="3468" inkscape:window-x="2209" inkscape:window-y="1413" inkscape:zoom="5.5987905" pagecolor="#ffffff" showgrid="true"><inkscape:grid color="#dee500" opacity=".14902" empcolor="#0099e5" empopacity="0.30196078" empspacing="2" enabled="true" originx="0" originy="0" spacingx="0.5" spacingy="0.5" units="px" visible="true"/></sodipodi:namedview>



<path d="m18.5 3.5-5 5 6 6-6 6 5 5 6-6 6 6-6 6-6-6-5 5 6 6-6 6 5 5 6-6 6 6 5-5-6-6 6-6 6 6 5-5-6-6 6-6-5-5-6 6-6-6 6-6-5-5-6 6-6-6z" fill="#fff" stroke="#000" stroke-linecap="round" stroke-linejoin="round" stroke-miterlimit="2" stroke-width="3" inkscape:label="right three Xs"/><path d="m2.5 19.5 5-5 6 6 6-6 5 5-6 6 6 6-5 5-6-6-6 6-5-5 6-6z" fill="#fff" stroke="#000" stroke-linecap="round" stroke-linejoin="round" stroke-miterlimit="2" stroke-width="3" inkscape:label="left X" sodipodi:nodetypes="ccccccccccccc"/></svg>
