<svg width="80" height="80" version="1.1" viewBox="0 0 80 80" xml:space="preserve" xmlns="http://www.w3.org/2000/svg"><g fill="#fff" stroke="#000" stroke-linejoin="round" stroke-width="4"><path d="m39 30-4-9-16-8h-10l-6 3v6l3 6 10 5h14z" stroke-linecap="round"/><path d="m46 27 8-4 5-10v-3l-3-3h-6l-6 6v8z" style="paint-order:normal"/><path d="m50 34-6 3-6 6v14l4 8 7 7h12l6-2-6-3-5-5-7-14v-11z"/><path d="m23 67 5-13 4-8v13l4 9 6 6h-5z"/><path d="m59 33h6l6 6 5 10v10l-4 4h-5l-6-6-5-11v-9z"/></g></svg>
