<?xml version="1.0" encoding="UTF-8"?>
<svg width="80" height="80" viewBox="0 0 80 80" version="1.1" xmlns="http://www.w3.org/2000/svg">
 <path d="m64 52v5l-12 12h-21l-14-14v-29l15-15h21l17 15 6-6-20-18h-28l-20 20v37l19 19h29l17-17v-13l-13-13h-3v-8l-7-7h-15l-4 4 7 6 1-1h7l2 2v4h-13l-7 7v11l7 7h14l7-7v-9z" fill="#fff" stroke="#000" stroke-linecap="round" stroke-linejoin="round" stroke-width="4"/>
 <path d="m47 44h-8l-2 2v3l2 2h6l2-2z" fill="none" stroke="#000" stroke-linecap="round" stroke-linejoin="round" stroke-width="4"/>
</svg>
