<svg id="Comments" enable-background="new 0 0 25 25" inkscape:version="1.4.3 (0d15f75, 2025-12-25)" sodipodi:docname="WhatsApp_Business_25px.svg" version="1.1" viewBox="0 0 25 25" xml:space="preserve" xmlns="http://www.w3.org/2000/svg" xmlns:inkscape="http://www.inkscape.org/namespaces/inkscape" xmlns:sodipodi="http://sodipodi.sourceforge.net/DTD/sodipodi-0.dtd"><sodipodi:namedview bordercolor="#000000" borderopacity="0.25" inkscape:current-layer="Comments" inkscape:cx="43.035753" inkscape:cy="36.500079" inkscape:deskcolor="#d1d1d1" inkscape:pagecheckerboard="0" inkscape:pageopacity="0.0" inkscape:showpageshadow="2" inkscape:window-height="1294" inkscape:window-maximized="0" inkscape:window-width="2051" inkscape:window-x="3304" inkscape:window-y="1607" inkscape:zoom="9.0273778" pagecolor="#ffffff" showgrid="true"><inkscape:grid color="#dee500" opacity=".14902" empcolor="#0099e5" empopacity="0.30196078" empspacing="1" enabled="true" originx="0" originy="0" spacingx="1" spacingy="1" units="px" visible="true"/></sodipodi:namedview>


<g display="none" stroke="#000" stroke-linecap="round" stroke-linejoin="round" stroke-width="2" inkscape:groupmode="layer" inkscape:label="old icon" sodipodi:insensitive="true"><polygon points="8 22 2 23 4 18 3 17 3 9 9 3 17 3 23 9 23 17 17 23 9 23" display="inline" fill="#fff" stroke-miterlimit="10" inkscape:label="speech bubble"/><g fill="none" stroke-miterlimit="0" inkscape:label="letter b"><path d="m10 8v10h4l2-1v-3l-2-1 2-1v-3l-2-1z" display="inline" inkscape:label="B outer" sodipodi:nodetypes="ccccccccccc"/><path d="m10 13h4.5" display="inline" inkscape:label="B mid" sodipodi:nodetypes="cc"/></g></g><g display="none" stroke-linecap="round" inkscape:groupmode="layer" inkscape:label="new icon - plus line" sodipodi:insensitive="true"><path d="m23 9v8l-6 6h-8l-1-1-6 1 2-5-1-1v-8l6-6h8" display="inline" fill="#fff" stroke="#000" stroke-linejoin="round" stroke-miterlimit="10" stroke-width="2" inkscape:label="speech bubble" sodipodi:nodetypes="ccccccccccc"/><polygon points="12 10 9 7 7 9 7 14 12 19 17 19 19 17 16 14 14 16 10 12" display="inline" fill="none" stroke="#000" stroke-linejoin="round" stroke-miterlimit="10" stroke-width="2" inkscape:label="phone"/><g display="inline" fill="#fff" stroke="#fff" stroke-miterlimit="2" stroke-width="4" inkscape:groupmode="layer" inkscape:label="plus outer stroke white"><path d="m20 3v6" display="inline" sodipodi:nodetypes="cc"/><path d="m17 6h6" display="inline" sodipodi:nodetypes="cc"/></g><g display="inline" fill="none" stroke="#000" stroke-linejoin="round" stroke-width="2" inkscape:label="plus" sodipodi:insensitive="true"><path d="m17.5 6h5" stroke-miterlimit="1" sodipodi:nodetypes="cc"/><path d="m20 3.5v5" stroke-miterlimit="0" sodipodi:nodetypes="cc"/></g></g><g stroke="#000" stroke-linecap="round" stroke-linejoin="round" stroke-width="2" inkscape:groupmode="layer" inkscape:label="new icon - plus outline"><path d="m22 9v8l-6 6h-8l-1-1-6 1 2-5-1-1v-8l6-6h8" fill="#fff" stroke-miterlimit="10" inkscape:label="speech bubble" sodipodi:nodetypes="ccccccccccc"/><polygon transform="translate(-1)" points="16 14 14 16 10 12 12 10 9 7 7 9 7 14 12 19 17 19 19 17" fill="none" stroke-miterlimit="10" inkscape:label="phone"/><path d="m17 4v-3h4v3h3v4h-3v3h-4v-3h-3v-4z" fill="#fff" stroke-miterlimit="2" inkscape:label="plus" sodipodi:nodetypes="ccccccccccccc"/></g></svg>
