<svg id="Comments" enable-background="new 0 0 50 50" inkscape:version="1.4.3 (0d15f75, 2025-12-25)" sodipodi:docname="WhatsApp_Business_50px.svg" version="1.1" viewBox="0 0 50 50" xml:space="preserve" xmlns="http://www.w3.org/2000/svg" xmlns:inkscape="http://www.inkscape.org/namespaces/inkscape" xmlns:sodipodi="http://sodipodi.sourceforge.net/DTD/sodipodi-0.dtd"><sodipodi:namedview bordercolor="#000000" borderopacity="0.25" inkscape:current-layer="Comments" inkscape:cx="7.6317478" inkscape:cy="16.101126" inkscape:deskcolor="#d1d1d1" inkscape:pagecheckerboard="0" inkscape:pageopacity="0.0" inkscape:showpageshadow="2" inkscape:window-height="1202" inkscape:window-maximized="0" inkscape:window-width="1948" inkscape:window-x="2751" inkscape:window-y="1574" inkscape:zoom="5.3722949" pagecolor="#ffffff" showgrid="true" showguides="true"><inkscape:grid color="#dee500" opacity=".14902" empcolor="#0099e5" empopacity="0.30196078" empspacing="2" enabled="true" originx="0" originy="0" spacingx="0.5" spacingy="0.5" units="px" visible="true"/><sodipodi:guide inkscape:color="rgb(0,134,229)" inkscape:label="" inkscape:locked="false" orientation="0,1" position="36,25.5"/><sodipodi:guide inkscape:color="rgb(0,134,229)" inkscape:label="" inkscape:locked="false" orientation="-1,0" position="24.5,40"/></sodipodi:namedview>


<g display="none" stroke="#000" stroke-linecap="round" stroke-linejoin="round" stroke-width="3" inkscape:groupmode="layer" inkscape:label="old icon" sodipodi:insensitive="true"><polygon points="3.5 44.5 7.5 34.5 5.5 32.5 5.5 16.5 17.5 4.5 33.5 4.5 45.5 16.5 45.5 32.5 33.5 44.5 17.5 44.5 15.5 42.5" display="inline" fill="#fff" stroke-miterlimit="10"/><path d="m19.5 15.5v18h9l3-3v-3l-3-3 3-3v-3l-3-3z" fill="none" stroke-miterlimit="0" sodipodi:nodetypes="ccccccccccc"/><path d="m20.5 24.5h8" fill="none" stroke-miterlimit="0" sodipodi:nodetypes="cc"/></g><g stroke="#000" stroke-linecap="round" stroke-linejoin="round" stroke-width="3" inkscape:groupmode="layer" inkscape:label="new icon - plus outline"><polygon transform="translate(-1,1)" points="17.5 44.5 15.5 42.5 3.5 44.5 7.5 34.5 5.5 32.5 5.5 16.5 17.5 4.5 33.5 4.5 45.5 16.5 45.5 32.5 33.5 44.5" fill="#fff" stroke-miterlimit="10"/><polygon transform="translate(-1,1)" points="13.5 26.5 23.5 36.5 33.5 36.5 37.5 32.5 31.5 26.5 27.5 30.5 19.5 22.5 23.5 18.5 17.5 12.5 13.5 16.5" fill="none" stroke-miterlimit="10"/><path d="m28.5 9.5v6h6v6h6v-6h6v-6h-6v-6h-6v6z" fill="#fff" stroke-miterlimit="2" sodipodi:nodetypes="ccccccccccccc"/></g></svg>
