<svg id="Comments" enable-background="new 0 0 80 80" inkscape:version="1.4.3 (0d15f75, 2025-12-25)" sodipodi:docname="WhatsApp_Business_80px.svg" version="1.1" viewBox="0 0 80 80" xml:space="preserve" xmlns="http://www.w3.org/2000/svg" xmlns:inkscape="http://www.inkscape.org/namespaces/inkscape" xmlns:sodipodi="http://sodipodi.sourceforge.net/DTD/sodipodi-0.dtd"><sodipodi:namedview bordercolor="#000000" borderopacity="0.25" inkscape:current-layer="g5" inkscape:cx="54.303191" inkscape:cy="43.319369" inkscape:deskcolor="#d1d1d1" inkscape:pagecheckerboard="0" inkscape:pageopacity="0.0" inkscape:showpageshadow="2" inkscape:window-height="1685" inkscape:window-maximized="0" inkscape:window-width="2039" inkscape:window-x="2828" inkscape:window-y="1499" inkscape:zoom="4.8708003" pagecolor="#ffffff" showgrid="true" showguides="true"><inkscape:grid color="#dee500" opacity=".14902" empcolor="#0099e5" empopacity="0.30196078" empspacing="1" enabled="true" originx="0" originy="0" spacingx="1" spacingy="1" units="px" visible="true"/><sodipodi:guide inkscape:locked="false" orientation="0,-1" position="17,40"/><sodipodi:guide inkscape:locked="false" orientation="1,0" position="40,35"/></sodipodi:namedview>


<g display="none" stroke="#000" stroke-linecap="round" stroke-linejoin="round" stroke-width="4" inkscape:groupmode="layer" inkscape:label="old logo" sodipodi:insensitive="true"><polygon points="15 51 15 28 30 13 51 13 66 28 66 51 51 66 30 66 26 62 14 66 19 55" display="inline" fill="#fff" stroke-miterlimit="10" inkscape:label="speech bubble"/><path d="m33 51h12l4-4v-4l-4-4 4-4v-4l-4-4h-12z" fill="none" stroke-miterlimit="0" inkscape:label="B outer" sodipodi:nodetypes="cccccccccc"/><path d="m33 39h13-1" display="inline" fill="none" stroke-miterlimit="0" inkscape:label="B middle" sodipodi:nodetypes="ccc"/></g><g stroke="#000" stroke-linecap="round" stroke-linejoin="round" inkscape:groupmode="layer" inkscape:label="new logo - plus outline"><polygon points="30 66 26 62 14 66 19 55 15 51 15 28 30 13 51 13 66 28 66 51 51 66" fill="#fff" stroke-miterlimit="10" stroke-width="4" inkscape:label="speech bubble"/><polygon points="32.5 37.5 37.5 32.5 30.5 25.5 26.5 29.5 26.5 41.5 38.5 53.5 50.5 53.5 54.5 49.5 47.5 42.5 42.5 47.5" fill="none" stroke-miterlimit="10" stroke-width="3" inkscape:label="phone"/><path d="m46.5 17.5v7h8v8h7v-8h8v-7h-8v-8h-7v8z" fill="#fff" stroke-miterlimit="2" stroke-width="3" inkscape:label="plus" sodipodi:nodetypes="ccccccccccccc"/></g></svg>
