<svg width="25" height="25" viewBox="0 0 25 25" fill="none" xmlns="http://www.w3.org/2000/svg">
<path d="M6 15V10L8 8L11 11V2H2L5 5L2 8V17L6 21L9 18L6 15Z" fill="white"/>
<path d="M19 10V15L17 17L14 14V23H23L20 20L23 17V8L19 4L16 7L19 10Z" fill="white"/>
<path d="M6 15V10L8 8L11 11V2H2L5 5L2 8V17L6 21L9 18L6 15Z" stroke="black" stroke-width="2" stroke-linejoin="round"/>
<path d="M19 10V15L17 17L14 14V23H23L20 20L23 17V8L19 4L16 7L19 10Z" stroke="black" stroke-width="2" stroke-linejoin="round"/>
</svg>
