<?xml version="1.0" encoding="UTF-8"?><svg id="Layer_1" xmlns="http://www.w3.org/2000/svg" viewBox="0 0 25 25"><polygon points="6.07 2.5 18.93 2.5 22.5 6.07 22.5 18.93 18.93 22.5 6.07 22.5 2.5 18.93 2.5 6.07 6.07 2.5" style="fill:#fff; stroke:#000; stroke-linecap:round; stroke-linejoin:round; stroke-width:2px;"/><polygon points="14.53 5.8 18.2 5.8 19.22 6.82 19.22 10.5 18.2 11.52 14.53 11.52 13.51 10.5 13.51 6.82 14.53 5.8" style="fill:#fff; stroke:#000; stroke-linecap:round; stroke-linejoin:round; stroke-width:1px;"/><polygon points="6.67 13.75 10.34 13.75 11.36 14.77 11.36 18.45 10.34 19.47 6.67 19.47 5.65 18.45 5.65 14.77 6.67 13.75" style="fill:#fff; stroke:#000; stroke-linecap:round; stroke-linejoin:round; stroke-width:1px;"/><polygon points="15.45 7.23 17.28 7.23 17.79 7.74 17.79 9.58 17.28 10.09 15.45 10.09 14.94 9.58 14.94 7.74 15.45 7.23"/><polygon points="11.36 16.61 18.2 11.52 14.53 11.52 13.51 10.5 13.51 6.82 8.51 13.75 10.34 13.75 11.36 14.77 11.36 16.61"/><polygon points="2.5 8.26 2.5 12.95 7.08 17.53 7.59 18.04 9.43 18.04 9.94 17.53 9.94 15.69 2.5 8.26"/></svg>